<?xml version="1.0" standalone="no"?>
<!DOCTYPE svg PUBLIC "-//W3C//DTD SVG 20010904//EN"
 "http://www.w3.org/TR/2001/REC-SVG-20010904/DTD/svg10.dtd">
<svg version="1.0" xmlns="http://www.w3.org/2000/svg"
 width="512.000000pt" height="512.000000pt" viewBox="0 0 512.000000 512.000000"
 preserveAspectRatio="xMidYMid meet">
<metadata>
Created by potrace 1.14, written by Peter Selinger 2001-2017
</metadata>
<g transform="translate(0.000000,512.000000) scale(0.100000,-0.100000)"
fill="#000000" stroke="none">
<path d="M1337 5113 c-3 -7 -2 -910 2 -923 0 -3 405 -5 899 -5 l897 0 0 -1265
c0 -696 -4 -1294 -8 -1330 -49 -406 -290 -628 -688 -632 -260 -3 -483 77 -684
243 -52 42 -200 192 -249 251 l-48 57 -26 -32 c-15 -18 -29 -34 -32 -37 -3 -3
-28 -32 -55 -65 -28 -33 -52 -62 -55 -65 -3 -3 -30 -34 -60 -70 -30 -36 -59
-70 -65 -76 -5 -6 -19 -22 -30 -36 -42 -51 -180 -213 -185 -218 -3 -3 -27 -32
-55 -65 -27 -33 -59 -71 -72 -84 -17 -18 -20 -27 -13 -42 15 -26 206 -218 265
-264 28 -22 52 -43 55 -46 15 -17 194 -127 273 -168 159 -83 398 -164 572
-195 17 -3 41 -8 55 -11 26 -5 62 -10 170 -22 155 -18 555 -8 708 18 31 5 73
12 92 15 131 20 364 96 495 162 223 111 421 289 547 492 47 75 136 254 143
287 2 10 13 45 25 78 33 96 69 255 85 385 3 25 9 63 12 85 4 22 8 838 10 1813
l4 1772 -1490 0 c-819 0 -1492 -3 -1494 -7z"/>
</g>
</svg>
