<?xml version="1.0" encoding="utf-8"?>
<!-- Generator: Adobe Illustrator 26.0.0, SVG Export Plug-In . SVG Version: 6.00 Build 0)  -->
<svg version="1.1" id="Layer_1" xmlns="http://www.w3.org/2000/svg" xmlns:xlink="http://www.w3.org/1999/xlink" x="0px" y="0px"
	 viewBox="0 0 100 100" style="enable-background:new 0 0 100 100;" xml:space="preserve">
<style type="text/css">
	.st0{fill-rule:evenodd;clip-rule:evenodd;fill:#4555D2;}
</style>
<path class="st0" d="M46.1,7.8H34.6c-6.3,0-11.5,5.1-11.5,11.5s5.1,11.5,11.5,11.5h11.5V7.8z M46.1,0h7.8h11.5
	C76,0,84.6,8.6,84.6,19.3c0,6.3-3,11.9-7.7,15.4c4.6,3.5,7.7,9.1,7.7,15.4c0,10.6-8.6,19.3-19.3,19.3c-4.3,0-8.3-1.4-11.5-3.8v3.8
	v11.5c0,10.6-8.6,19.3-19.3,19.3c-10.6,0-19.3-8.6-19.3-19.3c0-6.3,3-11.9,7.7-15.4c-4.6-3.5-7.7-9.1-7.7-15.4
	c0-6.3,3-11.9,7.7-15.4c-4.6-3.5-7.7-9.1-7.7-15.4C15.4,8.6,24,0,34.6,0H46.1z M53.9,7.8v23h11.5c6.3,0,11.5-5.1,11.5-11.5
	S71.7,7.8,65.4,7.8H53.9z M34.6,61.5h11.5V50v0v0V38.5H34.6c-6.3,0-11.5,5.1-11.5,11.5C23.2,56.3,28.3,61.5,34.6,61.5L34.6,61.5z
	 M23.2,80.7c0-6.3,5.1-11.5,11.4-11.5l0,0h11.5v11.5c0,6.3-5.1,11.5-11.5,11.5S23.2,87.1,23.2,80.7z M53.9,50
	c0-6.3,5.1-11.5,11.5-11.5c6.3,0,11.5,5.1,11.5,11.5s-5.1,11.5-11.5,11.5C59,61.5,53.9,56.4,53.9,50L53.9,50z"/>
</svg>
