<?xml version="1.0" encoding="utf-8"?>
<!-- Generator: Adobe Illustrator 26.0.0, SVG Export Plug-In . SVG Version: 6.00 Build 0)  -->
<svg version="1.1" id="Layer_1" xmlns="http://www.w3.org/2000/svg" xmlns:xlink="http://www.w3.org/1999/xlink" x="0px" y="0px"
	 viewBox="0 0 100 100" style="enable-background:new 0 0 100 100;" xml:space="preserve">
<style type="text/css">
	.st0{fill:#CC2973;}
</style>
<path class="st0" d="M100,0v100H0V0H100z M93.8,6.3H6.3v87.5h87.5V6.3z"/>
<path class="st0" d="M79.9,40.2v35.4h-11V40.2H79.9z"/>
<path class="st0" d="M74.3,35.7c-3,0.2-5.6-2.1-5.7-5.2c0-0.1,0-0.3,0-0.4c0-3.3,2.4-5.6,5.8-5.6c3.1-0.2,5.7,2.2,5.9,5.2
	c0,0.1,0,0.3,0,0.4C80.3,33.4,77.8,35.7,74.3,35.7z"/>
<path class="st0" d="M64.3,75.1c-5-15.9-9.9-31.8-14.8-47.8c-0.2-0.7-0.6-0.7-1.1-0.7c-4.2,0-8.4,0-12.6,0c0,0,0,0,0,0
	c-0.7-0.1-1.3,0.3-1.4,1C29.6,43.3,24.8,59,20,74.7c-0.1,0.3-0.1,0.6-0.2,0.9h11.5c0.1-0.3,0.2-0.6,0.3-0.9c1-3.6,2-7.2,3-10.8
	c0,0,0,0,0,0c0.1-0.5,0.5-0.9,1.1-0.8c4.1,0,8.3,0,12.4,0c0.7,0,1,0.3,1.1,0.9c0.5,1.7,1,3.4,1.5,5.1c0.7,2.2,1.3,4.4,2,6.5h11.9
	C64.4,75.4,64.4,75.3,64.3,75.1z M47.2,54.7H36.3c1.7-6.6,3.4-13.2,5.1-19.7h0.2L47.2,54.7L47.2,54.7z"/>
</svg>
