<?xml version="1.0" encoding="utf-8"?>
<!-- Generator: Adobe Illustrator 26.0.0, SVG Export Plug-In . SVG Version: 6.00 Build 0)  -->
<svg version="1.1" id="Layer_1" xmlns="http://www.w3.org/2000/svg" xmlns:xlink="http://www.w3.org/1999/xlink" x="0px" y="0px"
	 viewBox="0 0 100 100" style="enable-background:new 0 0 100 100;" xml:space="preserve">
<style type="text/css">
	.st0{fill:#CC2973;}
</style>
<path class="st0" d="M0,100V0h100v100H0z M6.3,6.2v87.5h87.5V6.2H6.3z"/>
<path class="st0" d="M35,74.6H24.3V27H35V74.6z"/>
<path class="st0" d="M64.7,24.4v18.5c-1-0.8-2-1.6-3-2.3c-5.5-2.9-13.2-1.2-17.4,3.7c-2.6,3.1-4.1,7-4.3,11.1
	c-0.4,5.4,0.5,10.5,4,14.9c0,0.1,0.1,0.1,0.1,0.2c4.8,5.8,13.3,6.6,19.1,1.9c0.9-0.9,1.7-1.8,2.5-2.7l0.5,5h9.3V24.4H64.7z
	 M64.2,62.3c-0.5,2.5-2.6,4.3-5.2,4.5c-1.9,0.3-3.8-0.2-5.3-1.5c-0.5-0.4-0.9-0.9-1.2-1.4c-2.6-4-2.3-10.9,0.6-14.2
	c1.7-2.1,4.6-2.8,7.1-1.9c0.9,0.3,1.8,0.8,2.4,1.5c1.1,1.1,1.8,2.6,1.9,4.2c0.1,1.2,0.1,2.3,0,3.5l0.2,0
	C64.8,58.8,64.6,60.5,64.2,62.3z"/>
</svg>
