<?xml version="1.0" encoding="utf-8"?>
<!-- Generator: Adobe Illustrator 26.0.0, SVG Export Plug-In . SVG Version: 6.00 Build 0)  -->
<svg version="1.1" id="Layer_1" xmlns="http://www.w3.org/2000/svg" xmlns:xlink="http://www.w3.org/1999/xlink" x="0px" y="0px"
	 viewBox="0 0 100 100" style="enable-background:new 0 0 100 100;" xml:space="preserve">
<style type="text/css">
	.st0{fill-rule:evenodd;clip-rule:evenodd;fill:#4555D2;}
</style>
<g>
	<path class="st0" d="M97.6,74l-0.5,1.1C89.5,90,76,99.2,56.7,99.5c-9,0.2-17.6-2.1-23.2-4.6C21.5,89.4,11.3,79.3,5.8,68.6
		c-8-15.4-9.4-36.9,7.2-52.9c0.2,0-2,3.5-1.8,3.5l-0.5,1.5C-1.3,58,35.5,90,71.2,86.4C80,85.5,91,80.8,97.6,74L97.6,74L97.6,74z
		 M97.6,74L97.6,74L97.6,74L97.6,74z"/>
	<path class="st0" d="M76,58.5c9,0.1,18.4-4.1,24-10.1c-4.9,12.4-18.9,20.3-37.9,17.8c-15.9-2.1-30.9-18.1-32.4-34
		c-1.1-11.6,2.9-18.5,9.6-26.9c-2.3,4.4-3.2,7.8-3.4,9.9C33.3,40.4,55.9,58.4,76,58.5L76,58.5L76,58.5z M76,58.5L76,58.5L76,58.5
		L76,58.5z"/>
	<path class="st0" d="M99.1,27.3c-1.4,3.3-9.4,9.3-13,10C71.9,40.4,63,33.7,58.2,26c-0.7-1.1-2-4.2-2.3-5C54.2,14.8,55,5.4,60.5,0.5
		c-1.6,4.6-1.9,10-1,13.5c0.6,2.1,2.1,5.8,3.7,8.1c2.9,4.2,4.7,5.3,8.5,7.5c1.7,1,3.5,1.8,4.3,2C79.5,32.8,87,35.6,99.1,27.3
		L99.1,27.3L99.1,27.3z M99.1,27.3L99.1,27.3L99.1,27.3L99.1,27.3z"/>
</g>
</svg>
