<?xml version="1.0" encoding="utf-8"?>
<!-- Generator: Adobe Illustrator 26.0.0, SVG Export Plug-In . SVG Version: 6.00 Build 0)  -->
<svg version="1.1" id="Layer_1" xmlns="http://www.w3.org/2000/svg" xmlns:xlink="http://www.w3.org/1999/xlink" x="0px" y="0px"
	 viewBox="0 0 100 100" style="enable-background:new 0 0 100 100;" xml:space="preserve">
<style type="text/css">
	.st0{fill:#5E5E5E;}
</style>
<path class="st0" d="M77.7,0H22.3C10,0,0,10,0,22.3v55.4C0,90,10,100,22.3,100h55.4C90,100,100,90,100,77.7V22.3C100,10,90,0,77.7,0
	z M23,25.3c0-1.9,1.5-3.4,3.4-3.4h2.2v-4.6c0-1.9,1.5-3.4,3.4-3.4h7.4c0.2-1.1,1.2-1.9,2.3-1.9h6c1.3,0,2.4,1.1,2.4,2.4v0.7
	c0,1.3-1.1,2.4-2.4,2.4h-6c-1.2,0-2.3-1-2.3-2.2h-7.3c-1.1,0-2,0.9-2,2V22h43.6c1.9,0,3.4,1.5,3.4,3.4l0.7,21.5H22.3L23,25.3z
	 M62.2,81.1h-25c-0.8,0-1.5-0.5-1.5-1.4c0-0.8,0.7-1.3,1.5-1.3h9.9c0.7,0,1.3-0.6,1.3-1.3V53.4h2.7V77c0,0.7,0.6,1.3,1.3,1.3h9.8
	c0.8,0,1.5,0.6,1.4,1.3C63.7,80.6,63,81.1,62.2,81.1z M76.2,51.7H23.8c-1.9,0-3.6-1.3-4.1-3h60.6C79.8,50.4,78.1,51.7,76.2,51.7z"/>
</svg>
