<svg width="100" height="87" viewBox="0 0 100 87" fill="none" xmlns="http://www.w3.org/2000/svg">
<path d="M58.9296 43.4194C58.9296 38.6196 54.932 34.7281 50 34.7281C45.0686 34.7281 41.0703 38.6196 41.0703 43.4194C41.0703 48.2197 45.0686 52.111 50 52.111C54.932 52.111 58.9296 48.2197 58.9296 43.4194Z" fill="#4555D2"/>
<path fill-rule="evenodd" clip-rule="evenodd" d="M79.0013 27.2835C80.887 19.8252 83.2573 5.99456 74.9013 1.30553C66.5843 -3.36306 55.7613 5.58282 50.0463 10.9526C44.348 5.63632 33.221 -3.2713 24.8721 1.43262C16.5584 6.11686 19.1221 19.7182 21.0497 27.2233C13.2944 29.3672 0 33.9849 0 43.4194C0 52.8271 13.2805 57.851 20.9899 59.9928C19.0553 67.5394 16.6199 80.9465 24.9442 85.6204C33.3243 90.3234 44.4167 81.6277 50.1847 76.1993C55.9363 81.6006 66.6553 90.3532 74.974 85.6662C83.3187 80.9645 81.1453 67.3192 79.2177 59.7707C86.691 57.6241 100 52.7096 100 43.4194C100 34.0756 86.6343 29.4204 79.0013 27.2835ZM78.054 55.7703C76.7883 51.8707 75.08 47.7238 72.9903 43.4401C74.985 39.2574 76.627 35.1641 77.8573 31.2895C83.453 32.8686 95.7283 36.4774 95.7283 43.4194C95.7283 50.4265 83.9487 54.0695 78.054 55.7703ZM72.8333 82.0678C66.6267 85.5645 57.407 77.1944 53.1593 73.2169C55.9773 70.217 58.7933 66.7297 61.5417 62.8572C66.3763 62.4399 70.9433 61.7573 75.0853 60.8254C76.442 66.1648 79.0673 78.5553 72.8333 82.0678ZM27.0787 82.0179C20.8714 78.5342 23.7086 66.5704 25.1319 61.0114C29.2278 61.8935 33.762 62.5279 38.608 62.9104C41.3743 66.6995 44.272 70.1826 47.192 73.2329C43.5843 76.6296 33.315 85.5176 27.0787 82.0179ZM4.27163 43.4194C4.27163 36.3861 16.4736 32.8033 22.1968 31.2283C23.4484 35.1898 25.0898 39.332 27.0708 43.5207C25.0642 47.7717 23.3992 51.9795 22.1362 55.9878C16.679 54.4673 4.27163 50.457 4.27163 43.4194ZM27.0123 5.03107C33.245 1.51969 42.9157 10.0713 47.053 13.9204C44.148 16.9568 41.277 20.4135 38.5343 24.181C33.8313 24.6053 29.3292 25.2865 25.1903 26.1994C23.6375 20.1462 20.7864 8.53868 27.0123 5.03107ZM64.5977 28.7003C67.7883 29.0921 70.8453 29.6135 73.7157 30.2512C72.854 32.9395 71.78 35.7506 70.515 38.6323C68.6813 35.246 66.713 31.9277 64.5977 28.7003ZM50.0477 16.8917C52.018 18.9692 53.9913 21.2892 55.9327 23.8062C51.995 23.6248 48.051 23.6242 44.1133 23.8035C46.0563 21.3099 48.0467 18.9934 50.0477 16.8917ZM29.5217 38.6293C28.2776 35.7577 27.2133 32.9342 26.3441 30.2074C29.1973 29.586 32.24 29.0781 35.41 28.6926C33.2887 31.9129 31.3237 35.23 29.5217 38.6293ZM35.501 58.4429C32.2263 58.0872 29.1375 57.605 26.2852 57.0007C27.1681 54.2261 28.2559 51.3417 29.5265 48.4081C31.3533 51.843 33.3483 55.1921 35.501 58.4429ZM50.166 70.2408C48.1413 68.1143 46.1217 65.7623 44.1493 63.2326C48.1093 63.3838 52.077 63.3842 56.0367 63.2122C54.0893 65.7881 52.123 68.1434 50.166 70.2408ZM70.5557 48.2589C71.8923 51.2243 73.019 54.0929 73.914 56.8207C71.0143 57.4648 67.884 57.9835 64.5857 58.3686C66.7167 55.08 68.7163 51.7101 70.5557 48.2589ZM59.1577 58.8726C53.1003 59.2938 47.0053 59.2892 40.946 58.907C37.503 54.0119 34.438 48.8639 31.7923 43.5194C34.4253 38.186 37.468 33.0479 40.8947 28.1606C46.9583 27.7145 53.0593 27.7132 59.123 28.1632C62.5203 33.0503 65.5583 38.1749 68.2523 43.4602C65.5903 48.7909 62.5317 53.9393 59.1577 58.8726ZM72.7677 4.90746C79.002 8.40734 76.227 20.8374 74.865 26.2425C70.7163 25.3106 66.211 24.6173 61.4943 24.1863C58.7463 20.3782 55.8993 16.9154 53.0413 13.9183C57.2317 9.98629 66.5937 1.44182 72.7677 4.90746Z" fill="#4555D2"/>
</svg>
