<svg width="100" height="100" viewBox="0 0 100 100" fill="none" xmlns="http://www.w3.org/2000/svg">
<g clip-path="url(#clip0_3661_68256)">
<path fill-rule="evenodd" clip-rule="evenodd" d="M100 0L100 100H0V0H100ZM60.3244 88.8727V78.7349C62.1015 80.2325 64.1339 81.402 66.3255 82.188C68.4233 82.9491 70.6387 83.3405 72.8719 83.3445C74.0098 83.3608 75.1458 83.2443 76.2564 82.9976C77.1091 82.8104 77.9247 82.4844 78.6702 82.0327C79.266 81.6731 79.7629 81.1725 80.1164 80.5755C80.4346 80.0199 80.5998 79.3907 80.5952 78.7514C80.6041 77.8984 80.3359 77.0652 79.8305 76.3756C79.2557 75.6154 78.5513 74.9611 77.7492 74.4426C76.7548 73.7876 75.7073 73.2162 74.6174 72.7342C73.4094 72.1857 72.1072 71.625 70.7108 71.0523C67.6507 69.9218 64.9165 68.0621 62.7481 65.6364C60.9807 63.4487 60.0513 60.7089 60.1249 57.9042C60.0668 55.7833 60.5604 53.6834 61.5579 51.8076C62.4992 50.1185 63.8342 48.6783 65.4511 47.6078C67.1917 46.4676 69.1241 45.6472 71.1563 45.1857C73.4047 44.6575 75.7083 44.3968 78.0185 44.4092C80.1321 44.3904 82.2439 44.533 84.3355 44.8354C86.0676 45.098 87.767 45.541 89.4057 46.1572V55.6176C88.6186 55.0771 87.7827 54.6103 86.9088 54.2231C86.0083 53.8248 85.0793 53.4935 84.1294 53.2318C83.1955 52.9715 82.2446 52.7761 81.2834 52.647C80.3934 52.5224 79.4958 52.4584 78.597 52.4553C77.5284 52.4445 76.4619 52.5554 75.4186 52.7857C74.5688 52.9669 73.7538 53.2826 73.0049 53.7209C72.3922 54.079 71.8702 54.5718 71.4788 55.1616C71.1185 55.7251 70.9313 56.3808 70.9402 57.0484C70.9295 57.7737 71.1392 58.4855 71.542 59.0905C72.0082 59.7568 72.5889 60.3363 73.2575 60.8021C74.1113 61.4057 75.0156 61.9353 75.9605 62.3849C77.0245 62.9026 78.2214 63.4357 79.5512 63.9842C81.242 64.6801 82.8827 65.4904 84.4618 66.4096C85.8334 67.202 87.0896 68.177 88.1955 69.3076C89.2258 70.3708 90.0357 71.6249 90.5793 72.9986C91.8675 76.6719 91.6453 80.7021 89.9609 84.2136C89.0204 85.9094 87.6713 87.3467 86.0344 88.3969C84.2713 89.5142 82.3157 90.2983 80.2661 90.7099C77.9832 91.1845 75.6563 91.4182 73.324 91.4072C70.9311 91.4169 68.5424 91.2045 66.1892 90.7727C64.1528 90.4217 62.1777 89.7819 60.3244 88.8727ZM56.4877 53.4962H43.1888V90.6835H32.6461V53.4962H19.4071V45.146H56.4877V53.4962Z" fill="#4555D2"/>
</g>
<defs>
<clipPath id="clip0_3661_68256">
<rect width="100" height="100" fill="white"/>
</clipPath>
</defs>
</svg>
