<?xml version="1.0" encoding="utf-8"?>
<!-- Generator: Adobe Illustrator 26.0.0, SVG Export Plug-In . SVG Version: 6.00 Build 0)  -->
<svg version="1.1" id="Layer_1" xmlns="http://www.w3.org/2000/svg" xmlns:xlink="http://www.w3.org/1999/xlink" x="0px" y="0px"
	 viewBox="0 0 100 100" style="enable-background:new 0 0 100 100;" xml:space="preserve">
<style type="text/css">
	.st0{fill:#4555D2;}
</style>
<g>
	<path class="st0" d="M60,42.5c1.5-1.1,2.3-3,2.3-5.5c0-1.4-0.3-2.6-0.8-3.5c-0.5-0.9-1.2-1.6-2-2.1s-1.8-0.9-2.9-1.1
		c-1.1-0.2-2.2-0.3-3.4-0.3H40.7v14.2h13.5C56.5,44.2,58.5,43.7,60,42.5z"/>
	<path class="st0" d="M62.1,55.3c-1.8-1.3-4.1-2-7-2H40.7v16.6h14.2c1.3,0,2.5-0.1,3.7-0.4c1.2-0.3,2.2-0.7,3.1-1.3
		c0.9-0.6,1.6-1.4,2.2-2.4c0.5-1,0.8-2.3,0.8-3.9C64.7,58.8,63.9,56.6,62.1,55.3z"/>
	<path class="st0" d="M87.1,0H12.9C5.8,0,0,5.8,0,12.9v74.2C0,94.2,5.8,100,12.9,100h74.2c7.1,0,12.9-5.8,12.9-12.9V12.9
		C100,5.8,94.2,0,87.1,0z M76.3,70.7c-1.2,2.2-2.8,4.1-4.8,5.5c-2,1.4-4.3,2.5-6.9,3.1c-2.6,0.7-5.2,1-7.9,1H27.4V19.7l28.5,0
		c2.9,0,5.5,0.3,7.9,0.8c2.4,0.5,4.4,1.3,6.1,2.5c1.7,1.2,3,2.7,3.9,4.6c0.9,1.9,1.4,4.3,1.4,7.1c0,3.1-0.7,5.6-2.1,7.6
		c-1.4,2-3.4,3.7-6.1,5c3.7,1.1,6.5,3,8.4,5.6c1.8,2.7,2.8,5.9,2.8,9.7C78.1,65.8,77.5,68.4,76.3,70.7z"/>
</g>
</svg>
