<?xml version="1.0" encoding="utf-8"?>
<!-- Generator: Adobe Illustrator 26.0.0, SVG Export Plug-In . SVG Version: 6.00 Build 0)  -->
<svg version="1.1" id="Layer_1" xmlns="http://www.w3.org/2000/svg" xmlns:xlink="http://www.w3.org/1999/xlink" x="0px" y="0px"
	 viewBox="0 0 100 100" style="enable-background:new 0 0 100 100;" xml:space="preserve">
<style type="text/css">
	.st0{fill:#4555D2;}
</style>
<path class="st0" d="M0,0v100h100V0H0z M54.4,78c0,9.7-5.7,14.2-14,14.2c-7.5,0-11.9-3.9-14.1-8.6l7.7-4.6c1.5,2.6,2.8,4.8,6,4.8
	c3.1,0,5-1.2,5-5.9V45.9h9.4L54.4,78L54.4,78z M76.7,92.2c-8.7,0-14.4-4.2-17.1-9.6l7.7-4.4c2,3.3,4.6,5.7,9.3,5.7
	c3.9,0,6.4-1.9,6.4-4.6c0-3.2-2.5-4.4-6.9-6.2l-2.3-1c-6.8-2.9-11.3-6.5-11.3-14.2c0-7.1,5.4-12.4,13.8-12.4c6,0,10.3,2.1,13.3,7.5
	l-7.3,4.7c-1.6-2.9-3.3-4-6-4c-2.7,0-4.5,1.7-4.5,4c0,2.8,1.7,4,5.8,5.7l2.3,1c8,3.4,12.5,6.9,12.5,14.8
	C92.2,87.5,85.6,92.2,76.7,92.2L76.7,92.2z"/>
</svg>
