<?xml version="1.0" encoding="utf-8"?>
<!-- Generator: Adobe Illustrator 26.0.0, SVG Export Plug-In . SVG Version: 6.00 Build 0)  -->
<svg version="1.1" id="Layer_1" xmlns="http://www.w3.org/2000/svg" xmlns:xlink="http://www.w3.org/1999/xlink" x="0px" y="0px"
	 viewBox="0 0 100 100" style="enable-background:new 0 0 100 100;" xml:space="preserve">
<style type="text/css">
	.st0{fill:#CC2973;}
</style>
<path class="st0" d="M0,100V0h100v100H0z M6.2,93.7h87.5V6.2H6.2V93.7z"/>
<path class="st0" d="M54.5,73.1c0.1-0.4,0.2-0.8,0.2-1.1c0.6-2.3,1.2-4.6,1.7-7c1.3,0.5,2.5,1.1,3.7,1.5c2.4,0.9,5.1,1.3,7.7,1
	c0.5-0.1,1-0.2,1.4-0.4c1-0.3,1.7-1.1,1.8-2.1c0.2-1-0.3-2.1-1.2-2.6c-1.1-0.6-2.3-1.1-3.4-1.6c-2.2-0.9-4.4-2-6.4-3.2
	c-6.7-4.3-5.4-12.8-0.3-16.7c2.5-1.9,5.5-3,8.6-3.1c4.2-0.4,8.4,0.3,12.2,2c-0.7,2.6-1.3,5.1-1.9,7.5c-2.2-0.6-4.2-1.3-6.4-1.7
	c-1.3-0.2-2.5-0.1-3.8,0.2c-1.1,0.2-2,1.1-2.1,2.3c-0.2,1.1,0.4,2.1,1.4,2.5c1.7,0.8,3.4,1.5,5.2,2.2c2.2,0.7,4.1,1.9,5.9,3.4
	c4.2,4.1,4.3,10.8,0.2,15c-0.4,0.4-0.8,0.8-1.3,1.1c-2.8,1.9-6.1,2.9-9.4,3c-4.1,0.3-8.2-0.3-12.1-1.7
	C55.7,73.6,55.1,73.3,54.5,73.1z"/>
<path class="st0" d="M53.8,38c-0.4-4.3-2.8-8.1-6.4-10.4c-2.9-1.8-6.3-2.9-9.8-2.9c-4.1-0.2-8.3-0.1-12.4,0
	c-2.4,0.1-4.8,0.5-7.2,0.7v49.4h11.2V57l1.2,0c2.9-0.1,5.8-0.1,8.6-0.5c3.9-0.4,7.6-2.1,10.4-4.9C53.3,47.9,54.3,43.1,53.8,38z
	 M42.7,40.7c-0.3,4.1-2.5,6.4-6.6,7.3c-0.1,0-0.2,0-0.3,0c-2.2,0.4-4.4,0.5-6.5,0.1V33.4c0,0,0.1,0,0.1,0c3.5-0.5,7-1,10.2,1
	C41.9,35.7,43.1,38.2,42.7,40.7z"/>
</svg>
