<?xml version="1.0" encoding="utf-8"?>
<!-- Generator: Adobe Illustrator 26.0.0, SVG Export Plug-In . SVG Version: 6.00 Build 0)  -->
<svg version="1.1" id="Layer_1" xmlns="http://www.w3.org/2000/svg" xmlns:xlink="http://www.w3.org/1999/xlink" x="0px" y="0px"
	 viewBox="0 0 100 100" style="enable-background:new 0 0 100 100;" xml:space="preserve">
<style type="text/css">
	.st0{fill:#4555D2;}
</style>
<path class="st0" d="M43.2,63.7c-1.8,1.1-2.8,1.6-4.4,2.5l-0.3-0.3C31,58.1,17.3,52.2,17.6,41.2c0.3-4.1,1.6-14.4,26.6-26.6
	c20.6-10.3,37.5-7.5,40.3-1.3c4.1,9.1-8.8,25.6-30.3,28.1c-4.7,0.9-9.7-0.3-13.8-3.1c-0.9-0.9-1.6-1.6-1.9-0.9
	c-0.6,0.3-0.3,1.6,0,2.2c1.9,2.8,4.4,5,7.5,6.3c8.4,1.9,17.2,0.9,25.3-2.5c13.1-5,23.1-19.1,20.3-30.6C88.9,0.3,68.8-3.5,50.4,3.4
	c-11.6,3.1-21.9,9.4-31.3,17.2C9.1,30.3,7.3,38.7,7.9,41.9c2.5,12.2,19.4,20.6,26.3,26.3c0,0-0.4,0.3-0.9,0.6
	c-3.1,1.9-16.6,8.8-20,15.9c-3.8,8.4,0.6,14.1,3.1,14.7c8.8,2.2,17.8-1.6,22.8-9.1c4.1-6.3,4.7-14.1,2.2-20.9
	c1.8-1.3,4.1-2.9,7.5-4.7l0,0c5-2.5,10.3-3.8,16.3-3.8c11.6,1.6,14.1,8.8,13.8,11.9c-0.3,2.2-1.9,4.1-3.8,5.3
	c-0.6,0.3-0.9,0.6-0.9,0.9s0.3,0.3,0.9,0.3c3.8-0.9,6.3-4.4,6.6-8.4c0.3-7.2-6.6-15.3-18.8-15.3c-3.8,0-7.2,0.6-10.3,2.2
	C50.2,59.1,47,61.6,43.2,63.7z M33.2,87.8c-4.1,4.4-9.4,5.6-11.6,4.4c-2.5-1.6-1.6-7.5,3.1-12.2c2.8-2.5,5.6-4.7,9.1-6.9
	c1.2-0.8,3.4-1.9,3.4-1.9C38.8,77.5,37.6,83.4,33.2,87.8z"/>
</svg>
