<svg id="Layer_1" data-name="Layer 1" xmlns="http://www.w3.org/2000/svg" viewBox="0 0 124 32"><defs><style>.cls-1{fill:#191e47;}.cls-2{fill:#4555d2;}.cls-3{fill:#cc2973;}</style></defs><path class="cls-1" d="M33,32a11.64,11.64,0,0,1-2.75-.34V28.38c.34.09.65.15.95.2a7.62,7.62,0,0,0,1,.06,2.24,2.24,0,0,0,1.43-.47,2.33,2.33,0,0,0,.59-1.86V10h4.17V26.93a6.09,6.09,0,0,1-.53,2.55,4.09,4.09,0,0,1-1.73,1.84A6.33,6.33,0,0,1,33,32ZM34.09,6a1.78,1.78,0,0,1,.66-1.61,3.21,3.21,0,0,1,3.21,0A1.76,1.76,0,0,1,38.63,6,1.76,1.76,0,0,1,38,7.64a3.09,3.09,0,0,1-3.21,0A1.78,1.78,0,0,1,34.09,6Z"/><path class="cls-1" d="M42.23,23.32a2.11,2.11,0,0,1,.7-1.81,2.84,2.84,0,0,1,1.7-.52,2.8,2.8,0,0,1,1.68.52,2.11,2.11,0,0,1,.7,1.81,2.12,2.12,0,0,1-.7,1.78,2.68,2.68,0,0,1-1.68.54,2.72,2.72,0,0,1-1.7-.54A2.12,2.12,0,0,1,42.23,23.32Z"/><path class="cls-1" d="M66.74,20.73A4.58,4.58,0,0,1,66,23.37,4.45,4.45,0,0,1,63.82,25a10.14,10.14,0,0,1-3.61.56,15.42,15.42,0,0,1-2.74-.21,10.72,10.72,0,0,1-2.3-.68V21.21a16.45,16.45,0,0,0,2.67.93,10.44,10.44,0,0,0,2.51.36,3.18,3.18,0,0,0,1.74-.36,1.12,1.12,0,0,0,.53-.95,1.17,1.17,0,0,0-.21-.69,2.76,2.76,0,0,0-.91-.7q-.7-.39-2.19-1A14.19,14.19,0,0,1,57,17.56a4,4,0,0,1-1.36-1.45A4.53,4.53,0,0,1,55.14,14a3.57,3.57,0,0,1,1.65-3.2A8,8,0,0,1,61.2,9.7a12.51,12.51,0,0,1,2.71.29,13.75,13.75,0,0,1,2.66.91l-1.26,3a20.6,20.6,0,0,0-2.14-.8,6.79,6.79,0,0,0-2-.32,3,3,0,0,0-1.38.25.8.8,0,0,0-.47.75,1,1,0,0,0,.24.66,3,3,0,0,0,.93.63c.46.23,1.14.53,2,.9a15.37,15.37,0,0,1,2.26,1.11,4.35,4.35,0,0,1,1.48,1.44A4.24,4.24,0,0,1,66.74,20.73Z"/><path class="cls-1" d="M72.08,4a2.88,2.88,0,0,1,1.6.43A1.76,1.76,0,0,1,74.35,6a1.76,1.76,0,0,1-.67,1.6,3.09,3.09,0,0,1-3.21,0A1.78,1.78,0,0,1,69.81,6a1.78,1.78,0,0,1,.66-1.61A2.89,2.89,0,0,1,72.08,4Zm2.08,6V25.27H70V10Z"/><path class="cls-1" d="M82.7,4v9.52c0,.57,0,1.14-.06,1.72L82.49,17h.05c.28-.4.57-.8.87-1.19a12.63,12.63,0,0,1,1-1.13L88.64,10h4.7l-6.07,6.63,6.44,8.65H88.9l-4.41-6.19L82.7,20.52v4.75H78.53V4Z"/><path class="cls-2" d="M5.67,16c1.58.48,2.3,1.47,2.3,3.83V25.3a2.25,2.25,0,0,0,2.49,2.53h.62V32h-2c-4.27,0-6.46-2.19-6.46-6.12V19.69a1.4,1.4,0,0,0-1.5-1.6H0V13.91H1.13a1.4,1.4,0,0,0,1.5-1.6V6.12C2.63,2.19,4.82,0,9.09,0h2V4.17h-.62A2.25,2.25,0,0,0,8,6.7v5.47C8,14.53,7.25,15.52,5.67,16Z"/><path class="cls-3" d="M6.42,15.69C7.48,15.13,8,14.12,8,12.17V6.7a2.25,2.25,0,0,1,2.49-2.53h.62V0h-2C4.82,0,2.63,2.19,2.63,6.12v6.19a1.4,1.4,0,0,1-1.5,1.6H0v4.18a13.11,13.11,0,0,0,2.44-.66A22.67,22.67,0,0,0,5.67,16,3.59,3.59,0,0,0,6.42,15.69Z"/><path class="cls-2" d="M118.33,16c-1.58-.48-2.3-1.47-2.3-3.83V6.7a2.25,2.25,0,0,0-2.49-2.53h-.62V0h2c4.27,0,6.46,2.19,6.46,6.12v6.19a1.4,1.4,0,0,0,1.5,1.6H124v4.18h-1.13a1.4,1.4,0,0,0-1.5,1.6v6.19c0,3.93-2.19,6.12-6.46,6.12h-2V27.83h.62A2.25,2.25,0,0,0,116,25.3V19.83C116,17.47,116.75,16.48,118.33,16Z"/><path class="cls-3" d="M117.58,16.31c-1.06.56-1.55,1.57-1.55,3.52V25.3a2.25,2.25,0,0,1-2.49,2.53h-.62V32h2c4.27,0,6.46-2.19,6.46-6.12V19.69a1.4,1.4,0,0,1,1.5-1.6H124V13.91a13.11,13.11,0,0,0-2.44.66A22.67,22.67,0,0,0,118.33,16,3.59,3.59,0,0,0,117.58,16.31Z"/></svg>