<svg xmlns="http://www.w3.org/2000/svg" width="22" height="22" viewBox="0 0 22 22">
  <path id="멤버쉽_로고" data-name="멤버쉽 로고" d="M72.6,8.727H56.335a2.866,2.866,0,0,0-2.866,2.866V27.861a2.866,2.866,0,0,0,2.866,2.866H72.6a2.867,2.867,0,0,0,2.867-2.866V11.593A2.867,2.867,0,0,0,72.6,8.727ZM71.2,21.822c-.256.454-.505.7-.944.7H63.147c-1.756,0-2.554-1.091-1.773-2.433a46.669,46.669,0,0,1,3.153-4.472c.43-.534.3-.621-.109-.621-3.4,0-6.1,2.233-6.1,4.721,0,2.7,2.38,4.651,6.141,4.651a6.949,6.949,0,0,0,4.773-1.549h1.235c-1.433,1.624-3.959,2.2-6.018,2.2-4.661,0-7.246-2.561-7.246-5.3,0-2.981,2.981-5.293,7.255-5.293a10.947,10.947,0,0,1,2.459.234c.6.161.465.485.3.692a39.937,39.937,0,0,0-3.634,4.986c-.348.689-.118.965.657.965H69.93c.457,0,.692-.785.692-1.652a4.437,4.437,0,0,0-3.045-4.245l.324-.486c2.313.921,3.829,2.779,3.829,4.8A4.323,4.323,0,0,1,71.2,21.822Z" transform="translate(-53.469 -8.727)" fill="#fff"/>
</svg>
