<svg xmlns="http://www.w3.org/2000/svg" viewBox="124.502 3614.4 14.702 14.836"><defs><style>.a{fill:#fff;}</style></defs><g transform="translate(8 -6)"><path class="a" d="M10.7,1.334A2.676,2.676,0,0,1,13.368,4v6.831A2.676,2.676,0,0,1,10.7,13.5H4a2.676,2.676,0,0,1-2.668-2.668V4A2.676,2.676,0,0,1,4,1.334h6.7M10.7,0H4A4.014,4.014,0,0,0,0,4v6.831a4.014,4.014,0,0,0,4,4h6.7a4.014,4.014,0,0,0,4-4V4a4.014,4.014,0,0,0-4-4Z" transform="translate(116.502 3620.4)"/><path class="a" d="M30.429,28.834a2.495,2.495,0,1,1-2.495,2.495,2.5,2.5,0,0,1,2.495-2.495m0-1.334a3.829,3.829,0,1,0,3.829,3.829A3.829,3.829,0,0,0,30.429,27.5Z" transform="translate(93.451 3596.569)"/><path class="a" d="M79.194,19.3a.894.894,0,1,0,.894.894.894.894,0,0,0-.894-.894Z" transform="translate(48.648 3603.675)"/></g></svg>