<svg width="32" height="32" viewBox="0 0 32 32" fill="none" xmlns="http://www.w3.org/2000/svg">
<path fill-rule="evenodd" clip-rule="evenodd" d="M20 9.5C20 11.7091 18.2091 13.5 16 13.5C13.7909 13.5 12 11.7091 12 9.5C12 7.29086 13.7909 5.5 16 5.5C18.2091 5.5 20 7.29086 20 9.5ZM22 9.5C22 12.8137 19.3137 15.5 16 15.5C12.6863 15.5 10 12.8137 10 9.5C10 6.18629 12.6863 3.5 16 3.5C19.3137 3.5 22 6.18629 22 9.5ZM15 17.5C8.92487 17.5 4 22.4249 4 28.5H6C6 23.5294 10.0294 19.5 15 19.5H17C21.9706 19.5 26 23.5294 26 28.5H28C28 22.4249 23.0751 17.5 17 17.5H15Z" fill="#1B2529"/>
</svg>
