<svg width="32" height="32" viewBox="0 0 32 32" fill="none" xmlns="http://www.w3.org/2000/svg">
<path fill-rule="evenodd" clip-rule="evenodd" d="M6.17007 4.75H2V2.75H7H7.82993L7.98287 3.56571L8.95493 8.75H28.5H29.7198L29.4806 9.94612L27.4806 19.9461L27.3198 20.75H26.5H10H9.17007L9.01713 19.9343L7.14213 9.93429L6.17007 4.75ZM9.32993 10.75L10.8299 18.75H25.6802L27.2802 10.75H9.32993ZM13 26.75C13.5523 26.75 14 26.3023 14 25.75C14 25.1977 13.5523 24.75 13 24.75C12.4477 24.75 12 25.1977 12 25.75C12 26.3023 12.4477 26.75 13 26.75ZM13 28.75C14.6569 28.75 16 27.4069 16 25.75C16 24.0931 14.6569 22.75 13 22.75C11.3431 22.75 10 24.0931 10 25.75C10 27.4069 11.3431 28.75 13 28.75ZM24 25.75C24 26.3023 23.5523 26.75 23 26.75C22.4477 26.75 22 26.3023 22 25.75C22 25.1977 22.4477 24.75 23 24.75C23.5523 24.75 24 25.1977 24 25.75ZM26 25.75C26 27.4069 24.6569 28.75 23 28.75C21.3431 28.75 20 27.4069 20 25.75C20 24.0931 21.3431 22.75 23 22.75C24.6569 22.75 26 24.0931 26 25.75Z" fill="#1B2529"/>
</svg>
